<?xml version="1.0" encoding="UTF-8" standalone="no"?>
<!-- Created with Inkscape (http://www.inkscape.org/) -->

<svg
   xmlns:dc="http://purl.org/dc/elements/1.1/"
   xmlns:cc="http://creativecommons.org/ns#"
   xmlns:rdf="http://www.w3.org/1999/02/22-rdf-syntax-ns#"
   xmlns:svg="http://www.w3.org/2000/svg"
   xmlns="http://www.w3.org/2000/svg"
   xmlns:sodipodi="http://sodipodi.sourceforge.net/DTD/sodipodi-0.dtd"
   xmlns:inkscape="http://www.inkscape.org/namespaces/inkscape"
   width="35.312515"
   height="35.312515"
   id="svg3052"
   version="1.1"
   inkscape:version="0.48.4 r9939"
   sodipodi:docname="New document 3">
  <defs
     id="defs3054" />
  <sodipodi:namedview
     id="base"
     pagecolor="#ffffff"
     bordercolor="#666666"
     borderopacity="1.0"
     inkscape:pageopacity="0.0"
     inkscape:pageshadow="2"
     inkscape:zoom="5.33"
     inkscape:cx="-32.75208"
     inkscape:cy="29.951956"
     inkscape:document-units="px"
     inkscape:current-layer="layer1"
     showgrid="false"
     fit-margin-top="0"
     fit-margin-left="0"
     fit-margin-right="0"
     fit-margin-bottom="0"
     inkscape:window-width="1366"
     inkscape:window-height="721"
     inkscape:window-x="-2"
     inkscape:window-y="-3"
     inkscape:window-maximized="1" />
  <metadata
     id="metadata3057">
    <rdf:RDF>
      <cc:Work
         rdf:about="">
        <dc:format>image/svg+xml</dc:format>
        <dc:type
           rdf:resource="http://purl.org/dc/dcmitype/StillImage" />
        <dc:title></dc:title>
      </cc:Work>
    </rdf:RDF>
  </metadata>
  <g
     inkscape:label="Layer 1"
     inkscape:groupmode="layer"
     id="layer1"
     transform="translate(-588.06249,-557.56249)">
    <path
       inkscape:connector-curvature="0"
       style="fill:#93b6ea;fill-opacity:1;stroke:#23457c;stroke-width:5.30000019;stroke-linecap:round;stroke-linejoin:round;stroke-miterlimit:4;stroke-opacity:1;stroke-dasharray:none;stroke-dashoffset:0"
       d="m 590.71429,560.21934 30,0 0,29.99998 -30,0 z"
       id="rect4089-3-6" />
    <path
       style="fill:none;stroke:#000000;stroke-width:1px;stroke-linecap:butt;stroke-linejoin:miter;stroke-opacity:1"
       d="m 595.16306,581.32322 c 0,0 -0.28073,-2.0952 2.69922,-3.1282 2.97994,-1.033 3.3423,2.2264 4.34304,1.1161 1.60279,-1.7782 -1.2496,-4.3705 -3.01198,-7.17262 -1.5027,-2.38924 -1.88339,-5.15068 -1.61579,-5.30219 0.2676,-0.15151 2.22031,-1.71065 4.39853,-2.1508 2.35155,-0.47518 5.26511,0.0135 6.27133,0.33941 0.59435,0.1925 -1.67811,5.98789 -1.05474,7.17133 0.70273,1.33407 4.12864,-6.34021 6.68267,-5.15873 3.90006,1.80413 2.24275,10.2049 0.60362,12.8773 -0.97238,1.5853 -3.93818,-2.8025 -5.60294,-2.9543 -1.32447,-0.1207 -1.23463,3.9168 -2.91193,5.1524 -2.41588,1.7796 -1.34429,3.8381 -1.34429,3.8381"
       id="path5799"
       inkscape:connector-curvature="0"
       sodipodi:nodetypes="czsszsssasssc" />
  </g>
</svg>
