<?xml version="1.0" encoding="UTF-8" standalone="no"?>
<!-- Created with Inkscape (http://www.inkscape.org/) -->

<svg
   xmlns:dc="http://purl.org/dc/elements/1.1/"
   xmlns:cc="http://creativecommons.org/ns#"
   xmlns:rdf="http://www.w3.org/1999/02/22-rdf-syntax-ns#"
   xmlns:svg="http://www.w3.org/2000/svg"
   xmlns="http://www.w3.org/2000/svg"
   xmlns:sodipodi="http://sodipodi.sourceforge.net/DTD/sodipodi-0.dtd"
   xmlns:inkscape="http://www.inkscape.org/namespaces/inkscape"
   width="229.82924"
   height="277.64337"
   id="svg2"
   version="1.1"
   inkscape:version="0.48.4 r9939"
   inkscape:export-filename="vanDoukenForceMock.png"
   inkscape:export-xdpi="300"
   inkscape:export-ydpi="300"
   sodipodi:docname="vandoukenGUIMock.svg">
  <defs
     id="defs4" />
  <sodipodi:namedview
     id="base"
     pagecolor="#ffffff"
     bordercolor="#666666"
     borderopacity="1.0"
     inkscape:pageopacity="0.0"
     inkscape:pageshadow="2"
     inkscape:zoom="4.97"
     inkscape:cx="168.11688"
     inkscape:cy="67.508454"
     inkscape:document-units="px"
     inkscape:current-layer="layer1"
     showgrid="false"
     fit-margin-top="0"
     fit-margin-left="0"
     fit-margin-right="0"
     fit-margin-bottom="0"
     inkscape:window-width="1366"
     inkscape:window-height="721"
     inkscape:window-x="-2"
     inkscape:window-y="-3"
     inkscape:window-maximized="1">
    <inkscape:grid
       type="xygrid"
       id="grid2985"
       empspacing="5"
       visible="true"
       enabled="true"
       snapvisiblegridlinesonly="true"
       originx="172.11952px"
       originy="100.24738px" />
  </sodipodi:namedview>
  <metadata
     id="metadata7">
    <rdf:RDF>
      <cc:Work
         rdf:about="">
        <dc:format>image/svg+xml</dc:format>
        <dc:type
           rdf:resource="http://purl.org/dc/dcmitype/StillImage" />
        <dc:title />
      </cc:Work>
    </rdf:RDF>
  </metadata>
  <g
     inkscape:label="Layer 1"
     inkscape:groupmode="layer"
     id="layer1"
     transform="translate(172.11952,-874.96619)">
    <path
       inkscape:connector-curvature="0"
       style="fill:#93b6ea;fill-opacity:1;stroke:#23457c;stroke-width:5.30000019;stroke-linecap:round;stroke-linejoin:round;stroke-miterlimit:4;stroke-opacity:1;stroke-dasharray:none;stroke-dashoffset:0"
       d="m 39.96655,1036.426 30,0 0,29.9999 -30,0 z"
       id="rect4089-3-8" />
    <rect
       style="fill:#edffff;fill-opacity:1;stroke:none"
       id="rect4602"
       width="229.82924"
       height="277.64337"
       x="-149.8175"
       y="1493.6495" />
    <path
       inkscape:connector-curvature="0"
       style="fill:#f8fc9b;fill-opacity:1;stroke:#dfba0d;stroke-width:5.30000019;stroke-linecap:round;stroke-linejoin:round;stroke-miterlimit:4;stroke-opacity:1;stroke-dasharray:none;stroke-dashoffset:0"
       d="m 253.37571,810.78172 30,0 0,30 -30,0 z"
       id="rect4089-8" />
    <path
       style="fill:#dfba0d;fill-opacity:1;stroke:#dfba0d;stroke-width:1px;stroke-linecap:round;stroke-linejoin:round;stroke-opacity:1"
       d="m 266.87571,835.78172 3,0 0,-13 2,4 3,0 -6,-11 -1,0 -6,11 3,0 2,-4 z"
       id="path4337-1"
       inkscape:connector-curvature="0"
       sodipodi:nodetypes="ccccccccccc" />
    <g
       id="g4598"
       transform="translate(-144.70491,52.724175)">
      <path
         id="rect4089"
         d="m 72.57084,874.94321 30,0 0,30 -30,0 z"
         style="fill:#93b6ea;fill-opacity:1;stroke:#23457c;stroke-width:5.30000019;stroke-linecap:round;stroke-linejoin:round;stroke-miterlimit:4;stroke-opacity:1;stroke-dasharray:none;stroke-dashoffset:0"
         inkscape:connector-curvature="0" />
      <path
         sodipodi:nodetypes="ccccccccccc"
         inkscape:connector-curvature="0"
         id="path4337"
         d="m 86.070839,899.94321 3,0 0,-13 2,4 3,0 -6,-11 -1,0 -6,11 3,0 2,-4 z"
         style="fill:#23457c;fill-opacity:1;stroke:#23457c;stroke-width:1px;stroke-linecap:round;stroke-linejoin:round;stroke-opacity:1" />
    </g>
    <g
       id="g4525"
       transform="translate(-147.02634,47.188462)">
      <path
         id="rect4089-9"
         d="m 119.96428,880.47892 30,0 0,30 -30,0 z"
         style="fill:#93b6ea;fill-opacity:1;stroke:#23457c;stroke-width:5.30000019;stroke-linecap:round;stroke-linejoin:round;stroke-miterlimit:4;stroke-opacity:1;stroke-dasharray:none;stroke-dashoffset:0"
         inkscape:connector-curvature="0" />
      <path
         sodipodi:nodetypes="ccccccccccc"
         inkscape:connector-curvature="0"
         id="path4337-9"
         d="m 127.1861,901.13578 2.12132,2.12132 9.19239,-9.1924 -1.41421,4.24265 2.12132,2.12132 3.53553,-12.02081 -0.70711,-0.70711 -12.02081,3.53553 2.12132,2.12132 4.24264,-1.41421 z"
         style="fill:#23457c;fill-opacity:1;stroke:#23457c;stroke-width:1px;stroke-linecap:round;stroke-linejoin:round;stroke-opacity:1" />
    </g>
    <g
       id="g4513"
       transform="translate(-144.70491,54.867032)">
      <path
         id="rect4089-92"
         d="m 27.642853,872.80035 29.999997,0 0,30 -29.999997,0 z"
         style="fill:#93b6ea;fill-opacity:1;stroke:#23457c;stroke-width:5.30000019;stroke-linecap:round;stroke-linejoin:round;stroke-miterlimit:4;stroke-opacity:1;stroke-dasharray:none;stroke-dashoffset:0"
         inkscape:connector-curvature="0" />
      <path
         sodipodi:nodetypes="ccccccccccc"
         inkscape:connector-curvature="0"
         id="path4337-2"
         d="m 48.299706,895.57852 2.12132,-2.12132 -9.192388,-9.19239 4.242641,1.41421 2.12132,-2.12132 -12.020815,-3.53553 -0.707107,0.70711 3.535534,12.02081 2.12132,-2.12132 -1.414214,-4.24264 z"
         style="fill:#23457c;fill-opacity:1;stroke:#23457c;stroke-width:1px;stroke-linecap:round;stroke-linejoin:round;stroke-opacity:1" />
    </g>
    <g
       id="g4555"
       transform="translate(-149.70491,44.95632)">
      <path
         id="rect4089-7"
         d="m 32.642853,927.80035 29.999997,0 0,30 -29.999997,0 z"
         style="fill:#93b6ea;fill-opacity:1;stroke:#23457c;stroke-width:5.30000019;stroke-linecap:round;stroke-linejoin:round;stroke-miterlimit:4;stroke-opacity:1;stroke-dasharray:none;stroke-dashoffset:0"
         inkscape:connector-curvature="0" />
      <path
         sodipodi:nodetypes="ccccccccccc"
         inkscape:connector-curvature="0"
         id="path4337-8"
         d="m 57.642852,944.30035 0,-3 -13,0 4,-2 0,-3 -11,6 0,1 11,6 0,-3 -4,-2 z"
         style="fill:#23457c;fill-opacity:1;stroke:#23457c;stroke-width:1px;stroke-linecap:round;stroke-linejoin:round;stroke-opacity:1" />
    </g>
    <g
       id="g4549"
       transform="translate(-149.70491,50.045604)">
      <path
         id="rect4089-97"
         d="m 32.642853,967.80035 29.999997,0 0,30 -29.999997,0 z"
         style="fill:#93b6ea;fill-opacity:1;stroke:#23457c;stroke-width:5.30000019;stroke-linecap:round;stroke-linejoin:round;stroke-miterlimit:4;stroke-opacity:1;stroke-dasharray:none;stroke-dashoffset:0"
         inkscape:connector-curvature="0" />
      <path
         sodipodi:nodetypes="ccccccccccc"
         inkscape:connector-curvature="0"
         id="path4337-3"
         d="m 55.421026,977.14349 -2.12132,-2.12132 -9.192389,9.19239 1.414214,-4.24264 -2.12132,-2.12132 -3.535534,12.02081 0.707107,0.70711 12.020815,-3.53553 -2.12132,-2.12132 -4.242641,1.41421 z"
         style="fill:#23457c;fill-opacity:1;stroke:#23457c;stroke-width:1px;stroke-linecap:round;stroke-linejoin:round;stroke-opacity:1" />
    </g>
    <g
       id="g4543"
       transform="translate(-144.77692,50.045604)">
      <path
         id="rect4089-5"
         d="m 72.642853,967.80035 29.999997,0 0,30 -29.999997,0 z"
         style="fill:#93b6ea;fill-opacity:1;stroke:#23457c;stroke-width:5.30000019;stroke-linecap:round;stroke-linejoin:round;stroke-miterlimit:4;stroke-opacity:1;stroke-dasharray:none;stroke-dashoffset:0"
         inkscape:connector-curvature="0" />
      <path
         sodipodi:nodetypes="ccccccccccc"
         inkscape:connector-curvature="0"
         id="path4337-0"
         d="m 89.142852,972.80035 -3,0 0,13 -2,-4 -3,0 6,11 1,0 6,-11 -3,0 -2,4 z"
         style="fill:#23457c;fill-opacity:1;stroke:#23457c;stroke-width:1px;stroke-linecap:round;stroke-linejoin:round;stroke-opacity:1" />
    </g>
    <g
       id="g4537"
       transform="translate(-144.70491,55.045604)">
      <path
         id="rect4089-6"
         d="m 117.64285,962.80035 30,0 0,30 -30,0 z"
         style="fill:#93b6ea;fill-opacity:1;stroke:#23457c;stroke-width:5.30000019;stroke-linecap:round;stroke-linejoin:round;stroke-miterlimit:4;stroke-opacity:1;stroke-dasharray:none;stroke-dashoffset:0"
         inkscape:connector-curvature="0" />
      <path
         sodipodi:nodetypes="ccccccccccc"
         inkscape:connector-curvature="0"
         id="path4337-5"
         d="m 126.986,970.02217 -2.12132,2.12132 9.19238,9.19239 -4.24264,-1.41421 -2.12131,2.12132 12.02081,3.53553 0.70711,-0.70711 -3.53553,-12.02081 -2.12132,2.12132 1.41421,4.24264 z"
         style="fill:#23457c;fill-opacity:1;stroke:#23457c;stroke-width:1px;stroke-linecap:round;stroke-linejoin:round;stroke-opacity:1" />
    </g>
    <path
       inkscape:connector-curvature="0"
       style="fill:#93b6ea;fill-opacity:1;stroke:#23457c;stroke-width:5.30000019;stroke-linecap:round;stroke-linejoin:round;stroke-miterlimit:4;stroke-opacity:1;stroke-dasharray:none;stroke-dashoffset:0"
       d="m -27.06206,972.79214 30,0 0,29.99996 -30,0 z"
       id="rect4089-3" />
    <path
       style="fill:#23457c;fill-opacity:1;stroke:#23457c;stroke-width:1px;stroke-linecap:round;stroke-linejoin:round;stroke-opacity:1"
       d="m -22.06206,986.29214 0,3 13,0 -4,2 0,3 11,-6 0,-1 -11,-6 0,3 4,2 z"
       id="path4337-55"
       inkscape:connector-curvature="0"
       sodipodi:nodetypes="ccccccccccc" />
    <path
       inkscape:connector-curvature="0"
       style="fill:#f8fc9b;fill-opacity:1;stroke:#dfba0d;stroke-width:5.30000019;stroke-linecap:round;stroke-linejoin:round;stroke-miterlimit:4;stroke-opacity:1;stroke-dasharray:none;stroke-dashoffset:0"
       d="m -72.13407,972.79214 30,0 0,29.99996 -30,0 z"
       id="rect4089-8-4" />
    <path
       sodipodi:type="arc"
       style="fill:#23457c;fill-opacity:1;stroke:#dfba0d;stroke-width:5.30000019;stroke-linecap:round;stroke-linejoin:round;stroke-miterlimit:4;stroke-opacity:1;stroke-dasharray:none;stroke-dashoffset:0"
       id="path4465"
       sodipodi:cx="87.5"
       sodipodi:cy="941.86218"
       sodipodi:rx="2.5"
       sodipodi:ry="2.5"
       d="m 90,941.86218 a 2.5,2.5 0 1 1 -5,0 2.5,2.5 0 1 1 5,0 z"
       transform="translate(-144.63407,45.929956)" />
    <path
       style="fill:none;stroke:#23457f;stroke-width:5.30000019;stroke-linecap:round;stroke-linejoin:round;stroke-miterlimit:4;stroke-opacity:0.94117647;stroke-dasharray:none"
       d="m -119.70491,1075.0864 125,0 0,0"
       id="path4561"
       inkscape:connector-curvature="0" />
    <g
       style="font-size:12px;font-style:normal;font-weight:normal;line-height:125%;letter-spacing:0px;word-spacing:0px;fill:#23457f;fill-opacity:1;stroke:#23457f;stroke-opacity:1;font-family:Latin Modern Roman;-inkscape-font-specification:Latin Modern Roman"
       id="text4563"
       transform="translate(-144.70491,52.724175)">
      <text
         xml:space="preserve"
         style="font-size:12px;font-style:normal;font-weight:normal;line-height:125%;letter-spacing:0px;word-spacing:0px;fill:#23457f;fill-opacity:1;stroke:none;font-family:Latin Modern Roman;-inkscape-font-specification:Latin Modern Roman"
         x="25"
         y="1047.3622"
         id="text4594"
         sodipodi:linespacing="125%"><tspan
           sodipodi:role="line"
           id="tspan4596"
           x="25"
           y="1047.3622">Kraftbetrag: 1.5</tspan></text>
    </g>
    <path
       style="fill:none;stroke:#dfba0d;stroke-width:5.30000019;stroke-linecap:round;stroke-linejoin:miter;stroke-miterlimit:4;stroke-opacity:1;stroke-dasharray:none"
       d="m -99.70491,1085.0864 0,-20 0,0 0,0"
       id="path4567"
       inkscape:connector-curvature="0" />
    <path
       inkscape:connector-curvature="0"
       style="fill:#93b6ea;fill-opacity:1;stroke:#23457c;stroke-width:5.30000019;stroke-linecap:round;stroke-linejoin:round;stroke-miterlimit:4;stroke-opacity:1;stroke-dasharray:none;stroke-dashoffset:0"
       d="m 29.85214,986.93482 30,0 0,29.99998 -30,0 z"
       id="rect4089-3-6" />
    <path
       style="fill:none;stroke:#000000;stroke-width:1px;stroke-linecap:butt;stroke-linejoin:miter;stroke-opacity:1"
       d="m 34.30091,1008.0387 c 0,0 -0.28073,-2.0952 2.69922,-3.1282 2.97994,-1.033 3.3423,2.2264 4.34304,1.1161 1.60279,-1.7782 -1.2496,-4.3705 -3.01198,-7.17262 -1.5027,-2.38924 -1.88339,-5.15068 -1.61579,-5.30219 0.2676,-0.15151 2.22031,-1.71065 4.39853,-2.1508 2.35155,-0.47518 5.26511,0.0135 6.27133,0.33941 0.59435,0.1925 -1.67811,5.98789 -1.05474,7.17133 0.70273,1.33407 4.12864,-6.34021 6.68267,-5.15873 3.90006,1.80413 2.24275,10.2049 0.60362,12.8773 -0.97238,1.5853 -3.93818,-2.8025 -5.60294,-2.9543 -1.32447,-0.1207 -1.23463,3.9168 -2.91193,5.1524 -2.41588,1.7796 -1.34429,3.8381 -1.34429,3.8381"
       id="path5799"
       inkscape:connector-curvature="0"
       sodipodi:nodetypes="czsszsssasssc" />
    <path
       inkscape:connector-curvature="0"
       style="fill:#93b6ea;fill-opacity:1;stroke:#23457c;stroke-width:5.30000019;stroke-linecap:round;stroke-linejoin:round;stroke-miterlimit:4;stroke-opacity:1;stroke-dasharray:none;stroke-dashoffset:0"
       d="m 34.409655,1076.0401 30,0 0,30 -30,0 z"
       id="rect4089-3-2" />
    <g
       id="g5857"
       transform="translate(32.645875,49.765295)">
      <rect
         y="1033.9308"
         x="8.9166975"
         height="14.688128"
         width="15.694165"
         id="rect5808"
         style="fill:none;stroke:#000000;stroke-opacity:1" />
      <g
         transform="translate(-0.20120688,0.93885037)"
         id="g5837">
        <path
           style="fill:none;stroke:#000000;stroke-width:1px;stroke-linecap:butt;stroke-linejoin:miter;stroke-opacity:1"
           d="m 11.834202,1035.3058 10.26157,0"
           id="path5810"
           inkscape:connector-curvature="0" />
        <path
           style="fill:none;stroke:#000000;stroke-width:1px;stroke-linecap:butt;stroke-linejoin:miter;stroke-opacity:1"
           d="m 11.834202,1040.336 10.26157,0"
           id="path5810-2"
           inkscape:connector-curvature="0" />
        <path
           style="fill:none;stroke:#000000;stroke-width:1px;stroke-linecap:butt;stroke-linejoin:miter;stroke-opacity:1"
           d="m 11.834202,1045.3662 10.26157,0"
           id="path5810-0"
           inkscape:connector-curvature="0" />
      </g>
    </g>
    <g
       id="g5914"
       transform="translate(22.257093,15.81845)">
      <rect
         transform="translate(-172.11952,874.96619)"
         y="156.3154"
         x="196.57948"
         height="8.6519117"
         width="13.078471"
         id="rect5864"
         style="fill:#000000;fill-opacity:1;stroke:#000000;stroke-opacity:1" />
      <rect
         y="1034.0985"
         x="36.532398"
         height="3.0181086"
         width="4.2253523"
         id="rect5866"
         style="fill:#000000;fill-opacity:1;stroke:#000000;stroke-opacity:1" />
      <path
         transform="matrix(0.31365055,0,0,1.7082536,-26.559633,762.73807)"
         d="m 215.69416,159.73593 c 0,0.88899 -0.76571,1.60966 -1.71026,1.60966 -0.94455,0 -1.71026,-0.72067 -1.71026,-1.60966 0,-0.88899 0.76571,-1.60966 1.71026,-1.60966 0.94455,0 1.71026,0.72067 1.71026,1.60966 z"
         sodipodi:ry="1.609658"
         sodipodi:rx="1.7102616"
         sodipodi:cy="159.73593"
         sodipodi:cx="213.9839"
         id="path5870"
         style="fill:#000000;fill-opacity:1;stroke:#000000;stroke-opacity:1"
         sodipodi:type="arc" />
    </g>
    <path
       inkscape:connector-curvature="0"
       style="fill:#93b6ea;fill-opacity:1;stroke:#23457c;stroke-width:5.30000019;stroke-linecap:round;stroke-linejoin:round;stroke-miterlimit:4;stroke-opacity:1;stroke-dasharray:none;stroke-dashoffset:0"
       d="m -11.868011,1083.0824 30,0 0,29.9999 -30,0 z"
       id="rect4089-3-8-8" />
    <path
       inkscape:connector-curvature="0"
       style="fill:#000000;fill-opacity:1;stroke:#000000;stroke-opacity:1"
       d="m -3.805511,1093.848 0,8.4687 13.875,0 0,-8.4687 -13.875,0 z m 6.9375,1.5312 c 2.2145,0 4,1.2266 4,2.7188 0,1.4922 -1.7855,2.6875 -4,2.6875 -2.2145,0 -4.03125,-1.1953 -4.03125,-2.6875 0,-1.4922 1.81675,-2.7188 4.03125,-2.7188 z"
       id="rect5919-7" />
  </g>
</svg>
